<svg fill="none" height="21" viewBox="0 0 21 21" width="21" xmlns="http://www.w3.org/2000/svg"><path clip-rule="evenodd" d="m19.8408 0h-18.69c-.636923.00461543-1.1508.522247-1.1508 1.15918v18.68962c.004616.6369.522253 1.1508 1.15919 1.1508h10.05901v-8.1206h-2.73v-3.17929h2.73v-2.33935c0-2.71105 1.6569-4.18942 4.0761-4.18942.8165-.00348 1.6326.03859 2.4444.126v2.83494h-1.6674c-1.3167 0-1.5729.62999-1.5729 1.54347v2.02436h3.1416l-.42 3.17929h-2.73v8.1206h5.3508c.6402 0 1.1592-.519 1.1592-1.1592v-18.68962c-.0046-.636916-.5223-1.15078-1.1592-1.15078z" fill="#000" fill-rule="evenodd"/></svg>