<svg fill="none" height="20" viewBox="0 0 20 20" width="20" xmlns="http://www.w3.org/2000/svg"><path clip-rule="evenodd" d="m13.5614 12.0664h-7.07704l-5.774419-5.77444c1.472859-3.68711 5.077079-6.29196 9.290059-6.29196 4.2254 0 7.8385 2.62028 9.3031 6.3247zm-1 1-2.5385 2.5385-2.53854-2.5385zm-12.206776-5.71554 9.314696 9.31474c.19526.1952.51188.1952.70708 0l9.2788-9.27878c.2248.83299.3448 1.70907.3448 2.61318 0 5.5231-4.4769 10-10 10-5.52313 0-10-4.4769-10-10 0-.91713.123444-1.80542.354624-2.64914zm5.550926-2.80404c-.19526-.19526-.51184-.19526-.7071 0-.19527.19526-.19527.51185 0 .70711l4.47062 4.47062c.19525.19526.51183.19527.70713.00003l4.4712-4.47063c.1953-.19525.1953-.51183.0001-.7071-.1953-.19528-.5119-.1953-.7072-.00005l-4.1177 4.11712z" fill="#262626" fill-rule="evenodd"/></svg>